<?xml version="1.0" encoding="utf-8"?>
<!-- Generator: Adobe Illustrator 19.2.1, SVG Export Plug-In . SVG Version: 6.00 Build 0)  -->
<svg version="1.1" id="layer" xmlns="http://www.w3.org/2000/svg" xmlns:xlink="http://www.w3.org/1999/xlink" x="0px" y="0px"
	 viewBox="0 0 652 652" style="enable-background:new 0 0 652 652;" xml:space="preserve">
<style type="text/css">
	.st0{fill:#BB16A3;}
	.st1{fill:#00AF66;}
	.st2{fill:#222221;}
</style>
<path class="st0" d="M131.7,267.5c-29.1,0.1-52.7,23.7-52.8,52.8h18.7c0-18.9,15.3-34.1,34.1-34.1s34.1,15.3,34.1,34.1
	s-15.3,34.1-34.1,34.1c-1.5,0-4,0-4,0c-3.9,6-8.6,11.4-14.1,16c5.9,2,12,3,18.2,3c29.3,0,53-23.8,53-53
	C184.7,291.3,161,267.5,131.7,267.5"/>
<path class="st1" d="M74,373.2c29.1-0.1,52.7-23.7,52.8-52.8h-18.6c0,18.9-15.3,34.1-34.2,34.1c-18.9,0-34.1-15.3-34.1-34.2
	c0-18.8,15.3-34.1,34.1-34.1c1.5,0,4,0,4,0c3.9-6,8.6-11.4,14.1-16c-5.9-1.8-12-2.7-18.1-2.6c-29.2,0-52.8,23.7-52.8,52.8
	C21.1,349.5,44.8,373.2,74,373.2"/>
<path class="st2" d="M222.7,372.1V268.6h50.9c18.4,0,30.3,11.2,30.3,28.4c0.1,9.7-6.1,18.4-15.3,21.4v1c11.2,2.5,19,12.7,18.3,24.2
	c0,14.2-7.4,28.4-33.1,28.4L222.7,372.1z M271.5,355.3c9.5,0,15.1-5.3,15.1-13.7c0.3-7.3-5.5-13.5-12.8-13.7c-0.5,0-1,0-1.4,0h-29.7
	v27.4H271.5z M269.9,312.5c7.5,0.6,14.1-5,14.7-12.6c0-0.5,0.1-1.1,0-1.6c0-7.1-5.7-12.9-12.8-12.9c-0.2,0-0.4,0-0.6,0h-28.7v26.9
	L269.9,312.5z"/>
<path class="st2" d="M419.6,374.4c-21.6,0.3-39.4-16.9-39.7-38.6c0-0.7,0-1.4,0-2.1c-0.4-21.7,16.8-39.6,38.5-40.1
	c21.7-0.4,39.6,16.8,40.1,38.5v6.4h-59.6v0.8c1.2,10.6,10,18.6,20.6,19c8.1,0.7,15.7-3.5,19.5-10.7l0,0h18.7v0.5
	C452.3,364.5,436.7,375.2,419.6,374.4 M439,325.4v-0.9c-2-8.9-10-15.2-19.1-14.9c-9.3-0.1-17.4,6-19.9,14.9v0.9H439z"/>
<rect x="472.6" y="268.7" class="st2" width="19.2" height="103.5"/>
<rect x="506" y="268.7" class="st2" width="19.2" height="103.5"/>
<path class="st2" d="M575.3,374.4c-22.3,0-37.4-19.6-37.4-40.6c0-21,15.3-40.8,37.4-40.8c19.1,0,25.7,10.4,25.7,10.4h1v-8h19.2v76.7
	h-19.2v-8h-1C600.9,364.1,594.4,374.4,575.3,374.4 M578.9,309.7c-13.6,0-22.6,9.9-22.6,24.2c-1,12.2,8,22.9,20.2,23.9
	c0.8,0.1,1.6,0.1,2.4,0.1c12.8-0.2,23.1-10.7,22.9-23.6c0-0.1,0-0.3,0-0.4c0.5-12.9-9.6-23.7-22.4-24.1
	C579.2,309.7,579,309.7,578.9,309.7"/>
<path class="st2" d="M320.4,372.1v-76.7h19.2v16.5h1c4.7-11.1,15.8-18.1,27.9-17.6h3.7v19.1h-3.7c-18.9,0-28.5,11.5-28.5,34.2v24.5
	H320.4z"/>
</svg>
